<mxfile host="Electron" modified="2023-05-09T08:10:58.795Z" agent="Mozilla/5.0 (Macintosh; Intel Mac OS X 10_15_7) AppleWebKit/537.36 (KHTML, like Gecko) draw.io/21.2.8 Chrome/112.0.5615.165 Electron/24.2.0 Safari/537.36" etag="5BCDWx7U1FSI4dhH7-AE" version="21.2.8" type="device">
  <diagram id="zkdOYTn5vW0a3zdd7zKN" name="페이지-2">
    <mxGraphModel dx="1194" dy="674" grid="1" gridSize="10" guides="1" tooltips="1" connect="1" arrows="1" fold="1" page="1" pageScale="1" pageWidth="827" pageHeight="1169" math="0" shadow="0">
      <root>
        <mxCell id="0" />
        <mxCell id="1" parent="0" />
        <mxCell id="FRXnbz1p3JDmP8_7-DGu-1" value="사용자" style="shape=umlActor;verticalLabelPosition=bottom;verticalAlign=top;html=1;" parent="1" vertex="1">
          <mxGeometry x="310" y="525" width="30" height="60" as="geometry" />
        </mxCell>
        <mxCell id="FRXnbz1p3JDmP8_7-DGu-9" value="회원가입" style="ellipse;whiteSpace=wrap;html=1;" parent="1" vertex="1">
          <mxGeometry x="470" y="516" width="150" height="60" as="geometry" />
        </mxCell>
        <mxCell id="FRXnbz1p3JDmP8_7-DGu-14" value="회사 회원" style="shape=umlActor;verticalLabelPosition=bottom;verticalAlign=top;html=1;" parent="1" vertex="1">
          <mxGeometry x="170" y="740" width="30" height="60" as="geometry" />
        </mxCell>
        <mxCell id="FRXnbz1p3JDmP8_7-DGu-15" value="일반 회원" style="shape=umlActor;verticalLabelPosition=bottom;verticalAlign=top;html=1;" parent="1" vertex="1">
          <mxGeometry x="170" y="910" width="30" height="60" as="geometry" />
        </mxCell>
        <mxCell id="FRXnbz1p3JDmP8_7-DGu-16" value="" style="endArrow=block;html=1;rounded=0;align=center;verticalAlign=bottom;endFill=0;labelBackgroundColor=none;endSize=8;" parent="1" edge="1">
          <mxGeometry x="1" y="142" relative="1" as="geometry">
            <mxPoint x="210" y="769.5" as="sourcePoint" />
            <mxPoint x="300" y="850" as="targetPoint" />
            <mxPoint x="110" y="52" as="offset" />
          </mxGeometry>
        </mxCell>
        <mxCell id="FRXnbz1p3JDmP8_7-DGu-18" value="" style="endArrow=block;html=1;rounded=0;align=center;verticalAlign=bottom;endFill=0;labelBackgroundColor=none;endSize=8;" parent="1" edge="1">
          <mxGeometry x="1" y="142" relative="1" as="geometry">
            <mxPoint x="210" y="930" as="sourcePoint" />
            <mxPoint x="300" y="860" as="targetPoint" />
            <mxPoint x="110" y="52" as="offset" />
          </mxGeometry>
        </mxCell>
        <mxCell id="FRXnbz1p3JDmP8_7-DGu-20" value="회원" style="shape=umlActor;verticalLabelPosition=bottom;verticalAlign=top;html=1;" parent="1" vertex="1">
          <mxGeometry x="310" y="830" width="30" height="60" as="geometry" />
        </mxCell>
        <mxCell id="FRXnbz1p3JDmP8_7-DGu-22" value="로그인" style="ellipse;whiteSpace=wrap;html=1;" parent="1" vertex="1">
          <mxGeometry x="470" y="705" width="150" height="60" as="geometry" />
        </mxCell>
        <mxCell id="FRXnbz1p3JDmP8_7-DGu-23" value="로그아웃" style="ellipse;whiteSpace=wrap;html=1;" parent="1" vertex="1">
          <mxGeometry x="470" y="825" width="150" height="60" as="geometry" />
        </mxCell>
        <mxCell id="FRXnbz1p3JDmP8_7-DGu-24" value="회원 탈퇴" style="ellipse;whiteSpace=wrap;html=1;" parent="1" vertex="1">
          <mxGeometry x="470" y="955" width="150" height="60" as="geometry" />
        </mxCell>
        <mxCell id="9Klvhd9V8XGBRdD3896y-1" value="" style="endArrow=none;html=1;rounded=0;exitX=1;exitY=0.3333333333333333;exitDx=0;exitDy=0;exitPerimeter=0;entryX=0;entryY=0.5;entryDx=0;entryDy=0;" edge="1" parent="1" source="FRXnbz1p3JDmP8_7-DGu-1" target="FRXnbz1p3JDmP8_7-DGu-9">
          <mxGeometry width="50" height="50" relative="1" as="geometry">
            <mxPoint x="290" y="585" as="sourcePoint" />
            <mxPoint x="340" y="535" as="targetPoint" />
          </mxGeometry>
        </mxCell>
        <mxCell id="9Klvhd9V8XGBRdD3896y-2" value="" style="endArrow=none;html=1;rounded=0;exitX=1;exitY=0.3333333333333333;exitDx=0;exitDy=0;exitPerimeter=0;entryX=0;entryY=0.5;entryDx=0;entryDy=0;" edge="1" parent="1" source="FRXnbz1p3JDmP8_7-DGu-20">
          <mxGeometry width="50" height="50" relative="1" as="geometry">
            <mxPoint x="370" y="850" as="sourcePoint" />
            <mxPoint x="470" y="851" as="targetPoint" />
          </mxGeometry>
        </mxCell>
        <mxCell id="9Klvhd9V8XGBRdD3896y-3" value="" style="endArrow=none;html=1;rounded=0;exitX=1;exitY=0.3333333333333333;exitDx=0;exitDy=0;exitPerimeter=0;entryX=0;entryY=0.5;entryDx=0;entryDy=0;" edge="1" parent="1" source="FRXnbz1p3JDmP8_7-DGu-20" target="FRXnbz1p3JDmP8_7-DGu-22">
          <mxGeometry width="50" height="50" relative="1" as="geometry">
            <mxPoint x="384" y="769.5" as="sourcePoint" />
            <mxPoint x="484" y="770.5" as="targetPoint" />
          </mxGeometry>
        </mxCell>
        <mxCell id="9Klvhd9V8XGBRdD3896y-4" value="" style="endArrow=none;html=1;rounded=0;exitX=1;exitY=0.3333333333333333;exitDx=0;exitDy=0;exitPerimeter=0;entryX=0;entryY=0.5;entryDx=0;entryDy=0;" edge="1" parent="1" source="FRXnbz1p3JDmP8_7-DGu-20" target="FRXnbz1p3JDmP8_7-DGu-24">
          <mxGeometry width="50" height="50" relative="1" as="geometry">
            <mxPoint x="370" y="890" as="sourcePoint" />
            <mxPoint x="470" y="891" as="targetPoint" />
          </mxGeometry>
        </mxCell>
        <mxCell id="9Klvhd9V8XGBRdD3896y-7" value="회원관리 시스템" style="shape=umlFrame;whiteSpace=wrap;html=1;pointerEvents=0;recursiveResize=0;container=1;collapsible=0;width=160;" vertex="1" parent="1">
          <mxGeometry x="430" y="470" width="230" height="580" as="geometry" />
        </mxCell>
      </root>
    </mxGraphModel>
  </diagram>
</mxfile>
